{"title":"Gamer.2009..SWESUB.DVDRip.XviD.AC3.(5.1).-Zen_Bud","uid":5697198,"size":1473504164,"categoryP":"video","categoryS":"movies","magnet":"?xt=urn:btih:958f35e2b3018b5d88e91c88f6ece3b94d65d852&amp;dn=Gamer.2009..SWESUB.DVDRip.XviD.AC3.%285.1%29.-Zen_Bud&amp;tr=udp%3A%2F%2Ftracker.openbittorrent.com%3A80&amp;tr=udp%3A%2F%2Fopen.demonii.com%3A1337&amp;tr=udp%3A%2F%2Ftracker.coppersurfer.tk%3A6969&amp;tr=udp%3A%2F%2Fexodus.desync.com%3A6969","seeders":0,"leechers":1,"uploader":null,"files":1,"time":1279354913,"description":"General\nComplete name                    : Gamer.2009.avi\nFormat                           : AVI\nFile size                        : 1.37 GiB\nDuration                         : 1h 34mn\nOverall bit rate                 : 2 070 Kbps\n\nVideo\n\nFormat                           : MPEG-4 Visual\nCodec ID/Hint                    : XviD\nDuration                         : 1h 34mn\nBit rate                         : 1 612 Kbps\nWidth                            : 720 pixels\nHeight                           : 460 pixels\nDisplay aspect ratio             : 1.855\nStream size                      : 1.07 GiB (78%)\nWriting library                  : XviD 1.1.2 (UTC 2006-11-01)\n\nAudio\n\nFormat                           : AC-3\nDuration                         : 1h 34mn\nBit rate                         : 448 Kbps\nChannel(s)                       : 6 channels\nChannel positions                : Front: L C R, Side: L R, LFE\nSampling rate                    : 48.0 KHz\nStream size                      : 304 MiB (22%)\n\n\n","torrent":{"xt":"urn:btih:958f35e2b3018b5d88e91c88f6ece3b94d65d852","amp;dn":"Gamer.2009..SWESUB.DVDRip.XviD.AC3.%285.1%29.-Zen_Bud","amp;tr":["udp%3A%2F%2Ftracker.openbittorrent.com%3A80","udp%3A%2F%2Fopen.demonii.com%3A1337","udp%3A%2F%2Ftracker.coppersurfer.tk%3A6969","udp%3A%2F%2Fexodus.desync.com%3A6969"],"infoHash":"958f35e2b3018b5d88e91c88f6ece3b94d65d852","infoHashBuffer":{"type":"Buffer","data":[149,143,53,226,179,1,139,93,136,233,28,136,246,236,227,185,77,101,216,82]},"announce":[],"urlList":[]}}